<?xml version="1.0" encoding="UTF-8" standalone="no"?>
<!-- Generator: Adobe Illustrator 16.0.0, SVG Export Plug-In . SVG Version: 6.00 Build 0)  -->

<svg
   xmlns:dc="http://purl.org/dc/elements/1.1/"
   xmlns:cc="http://creativecommons.org/ns#"
   xmlns:rdf="http://www.w3.org/1999/02/22-rdf-syntax-ns#"
   xmlns:svg="http://www.w3.org/2000/svg"
   xmlns="http://www.w3.org/2000/svg"
   xmlns:sodipodi="http://sodipodi.sourceforge.net/DTD/sodipodi-0.dtd"
   xmlns:inkscape="http://www.inkscape.org/namespaces/inkscape"
   version="1.1"
   id="Capa_1"
   x="0px"
   y="0px"
   width="430.1181"
   height="372.76944"
   viewBox="0 0 430.11809 372.76943"
   xml:space="preserve"
   sodipodi:docname="vimeo-logo.svg"
   inkscape:version="0.92.4 (5da689c313, 2019-01-14)"><metadata
   id="metadata40"><rdf:RDF><cc:Work
       rdf:about=""><dc:format>image/svg+xml</dc:format><dc:type
         rdf:resource="http://purl.org/dc/dcmitype/StillImage" /><dc:title></dc:title></cc:Work></rdf:RDF></metadata><defs
   id="defs38" /><sodipodi:namedview
   pagecolor="#ffffff"
   bordercolor="#666666"
   borderopacity="1"
   objecttolerance="10"
   gridtolerance="10"
   guidetolerance="10"
   inkscape:pageopacity="0"
   inkscape:pageshadow="2"
   inkscape:window-width="1920"
   inkscape:window-height="1017"
   id="namedview36"
   showgrid="false"
   fit-margin-top="0"
   fit-margin-left="0"
   fit-margin-right="0"
   fit-margin-bottom="0"
   inkscape:zoom="0.54868662"
   inkscape:cx="215.05901"
   inkscape:cy="186.38399"
   inkscape:window-x="-8"
   inkscape:window-y="-8"
   inkscape:window-maximized="1"
   inkscape:current-layer="Capa_1" />
<g
   id="g3"
   transform="translate(0,-28.673568)"
   style="stroke:#ffffff;fill:#ffffff">
	<path
   id="Vimeo"
   d="m 367.243,28.754 c -59.795,-1.951 -100.259,31.591 -121.447,100.664 10.912,-4.494 21.516,-6.762 31.858,-6.762 21.804,0 31.455,12.237 28.879,36.776 -1.278,14.86 -10.911,36.482 -28.879,64.858 -18.039,28.423 -31.513,42.61 -40.464,42.61 -11.621,0 -22.199,-21.958 -31.857,-65.82 -3.239,-12.918 -9.031,-45.812 -17.324,-98.765 C 180.234,53.269 159.689,30.353 126.282,33.574 112.15,34.873 90.98,47.815 62.726,72.308 42.113,91.032 21.228,109.761 0,128.471 l 20.225,26.112 c 19.303,-13.562 30.595,-20.311 33.731,-20.311 14.802,0 28.625,23.219 41.488,69.651 11.53,42.644 23.158,85.23 34.744,127.812 17.256,46.466 38.529,69.708 63.552,69.708 40.473,0 90.028,-38.065 148.469,-114.223 56.537,-72.909 85.725,-130.352 87.694,-172.341 2.595,-56.115 -18.29,-84.851 -62.66,-86.125 z"
   inkscape:connector-curvature="0"
   style="stroke:#ffffff;fill:#ffffff" />
</g>
<g
   id="g5"
   transform="translate(0,-28.673568)">
</g>
<g
   id="g7"
   transform="translate(0,-28.673568)">
</g>
<g
   id="g9"
   transform="translate(0,-28.673568)">
</g>
<g
   id="g11"
   transform="translate(0,-28.673568)">
</g>
<g
   id="g13"
   transform="translate(0,-28.673568)">
</g>
<g
   id="g15"
   transform="translate(0,-28.673568)">
</g>
<g
   id="g17"
   transform="translate(0,-28.673568)">
</g>
<g
   id="g19"
   transform="translate(0,-28.673568)">
</g>
<g
   id="g21"
   transform="translate(0,-28.673568)">
</g>
<g
   id="g23"
   transform="translate(0,-28.673568)">
</g>
<g
   id="g25"
   transform="translate(0,-28.673568)">
</g>
<g
   id="g27"
   transform="translate(0,-28.673568)">
</g>
<g
   id="g29"
   transform="translate(0,-28.673568)">
</g>
<g
   id="g31"
   transform="translate(0,-28.673568)">
</g>
<g
   id="g33"
   transform="translate(0,-28.673568)">
</g>
</svg>